<?xml version="1.0" encoding="utf-8"?>
<!-- Generator: Adobe Illustrator 24.0.1, SVG Export Plug-In . SVG Version: 6.00 Build 0)  -->
<svg version="1.1" id="Capa_1" xmlns="http://www.w3.org/2000/svg" xmlns:xlink="http://www.w3.org/1999/xlink" x="0px" y="0px"
	 viewBox="0 0 180.6 33.9" style="enable-background:new 0 0 180.6 33.9;" xml:space="preserve">
<style type="text/css">
	.st0{fill-rule:evenodd;clip-rule:evenodd;fill:#000E78;}
	.st1{fill-rule:evenodd;clip-rule:evenodd;fill:#D9001D;}
</style>
<g>
	<g>
		<path class="st0" d="M130.7,19.9c0-1.1,0.9-2,2-2s2,0.9,2,2s-0.9,2-2,2C131.5,21.8,130.7,21,130.7,19.9z"/>
		<g>
			<path class="st0" d="M147.4,21.1c-0.6,0.3-1.2,0.5-1.8,0.7s-1.2,0.3-1.8,0.3c-0.8,0-1.6-0.1-2.3-0.4c-0.7-0.2-1.3-0.6-1.8-1.1
				s-0.9-1.1-1.1-1.8c-0.3-0.7-0.4-1.6-0.4-2.6c0-1.9,0.5-3.3,1.5-4.4s2.4-1.6,4-1.6c0.6,0,1.3,0.1,1.9,0.3c0.6,0.2,1.2,0.4,1.7,0.7
				v2.1h-0.1c-0.6-0.5-1.2-0.8-1.8-1s-1.2-0.4-1.8-0.4c-1.1,0-1.9,0.4-2.6,1.1c-0.6,0.7-0.9,1.8-0.9,3.2s0.3,2.4,0.9,3.2
				c0.6,0.7,1.5,1.1,2.6,1.1c0.4,0,0.8-0.1,1.2-0.2s0.8-0.2,1.1-0.4c0.3-0.1,0.5-0.3,0.8-0.4c0.2-0.2,0.4-0.3,0.6-0.4h0.1
				L147.4,21.1L147.4,21.1z"/>
			<path class="st0" d="M160.3,16.2c0,1.8-0.5,3.3-1.4,4.4s-2.2,1.6-3.8,1.6s-2.9-0.5-3.8-1.6c-0.9-1.1-1.4-2.5-1.4-4.4
				c0-1.8,0.5-3.3,1.4-4.4s2.2-1.6,3.8-1.6s2.9,0.5,3.8,1.6C159.8,12.9,160.3,14.3,160.3,16.2z M158.4,16.2c0-1.5-0.3-2.6-0.9-3.3
				c-0.6-0.7-1.4-1.1-2.4-1.1s-1.8,0.4-2.4,1.1c-0.6,0.7-0.9,1.8-0.9,3.3c0,1.4,0.3,2.5,0.9,3.2c0.6,0.7,1.4,1.1,2.4,1.1
				s1.8-0.4,2.4-1.1C158.1,18.7,158.3,17.6,158.4,16.2z"/>
			<path class="st0" d="M180.6,21.8h-1.9v-6.5c0-0.5,0-1-0.1-1.4c0-0.5-0.1-0.8-0.3-1.1s-0.4-0.5-0.7-0.7c-0.3-0.1-0.7-0.2-1.3-0.2
				c-0.5,0-1.1,0.1-1.6,0.4c-0.5,0.3-1.1,0.6-1.6,1c0,0.2,0,0.3,0.1,0.5c0,0.2,0,0.4,0,0.6v7.3h-1.9v-6.5c0-0.5,0-1-0.1-1.4
				c0-0.5-0.1-0.8-0.3-1.1s-0.4-0.5-0.7-0.6s-0.7-0.2-1.3-0.2c-0.5,0-1,0.1-1.6,0.4c-0.5,0.3-1,0.6-1.6,1v8.5h-1.9V10.5h1.9v1.3
				c0.6-0.5,1.2-0.9,1.8-1.2s1.2-0.4,1.9-0.4c0.8,0,1.4,0.2,2,0.5c0.5,0.3,0.9,0.8,1.2,1.3c0.8-0.6,1.5-1.1,2.1-1.4
				c0.6-0.3,1.3-0.4,2-0.4c1.2,0,2.2,0.4,2.8,1.1c0.6,0.8,0.9,1.8,0.9,3.2v7.3C180.4,21.8,180.6,21.8,180.6,21.8z"/>
		</g>
		<g>
			<path class="st0" d="M68.1,24.7c0,1.1-0.2,2-0.5,2.7s-0.7,1.3-1.3,1.7c-0.5,0.4-1.2,0.7-2,0.9c-0.8,0.2-1.6,0.3-2.6,0.3h-4.3
				v-3.5h3.8c0.7,0,1.2-0.1,1.6-0.2c0.4-0.1,0.7-0.3,1-0.5c0.2-0.2,0.4-0.5,0.5-0.8s0.1-4.1,0.1-4.6v-0.2c-0.4,0.4-0.9,0.6-1.5,0.8
				c-0.5,0.2-1.1,0.3-1.8,0.3c-1.6,0-2.8-0.5-3.7-1.4c-0.9-1-1.3-2.4-1.3-4.4c0-0.9,0.1-1.7,0.4-2.4c0.3-0.7,0.6-1.3,1.1-1.8
				c0.4-0.5,1-0.8,1.6-1.1c0.7-0.3,1.3-0.4,2-0.4c0.6,0,6.7,0,6.7,0v14.6H68.1z M64.4,18.3v-5.4c0,0-1.3,0-1.6,0
				c-1,0-1.7,0.3-2.2,0.8C60.2,14.2,60,15,60,16c0,1.1,0.2,1.9,0.6,2.3c0.4,0.4,1,0.6,1.8,0.6c0.4,0,0.7-0.1,1.1-0.2
				C63.8,18.6,64.2,18.4,64.4,18.3z"/>
			<path class="st0" d="M98.4,16c0,0.9-0.1,1.8-0.4,2.6c-0.3,0.8-0.7,1.4-1.1,1.9c-0.5,0.5-1,0.9-1.6,1.2c-0.6,0.3-1.3,0.4-2,0.4
				c-0.6,0-1.2-0.1-1.6-0.2c-0.5-0.1-0.9-0.3-1.4-0.6v9.1h-3.6V10.2h3.6c0,0,3,0,3.7,0c1.4,0,2.5,0.5,3.3,1.6
				C98.1,12.8,98.4,14.2,98.4,16z M94.7,16.1c0-1.1-0.2-1.9-0.6-2.4s-1-0.7-1.8-0.7h-2.1v6.3c0.2,0.1,0.5,0.2,0.8,0.2s0.5,0,0.8,0
				c1,0,1.7-0.3,2.2-0.8C94.5,18.1,94.7,17.2,94.7,16.1z"/>
			<path class="st0" d="M112.9,16.8h-8.3c0.1,0.9,0.4,1.6,1,2c0.6,0.5,1.5,0.7,2.8,0.7h3.5v2.6H108c-2.3,0-4-0.5-5.2-1.5
				s-1.8-2.5-1.8-4.4s0.6-3.4,1.7-4.4c1.2-1.1,2.7-1.6,4.7-1.6c1.8,0,3.2,0.5,4.2,1.4c0.9,0.9,1.4,2.3,1.4,4L112.9,16.8L112.9,16.8z
				 M109.3,14.7c0-0.8-0.2-1.3-0.6-1.7s-0.9-0.6-1.7-0.6c-0.7,0-1.3,0.2-1.7,0.5c-0.5,0.4-0.7,0.9-0.8,1.7h4.8
				C109.3,14.6,109.3,14.7,109.3,14.7z"/>
			<path class="st0" d="M49.5,18.9v-2.4c-0.5,0-1,0.1-1.6,0.2s-1,0.1-1.3,0.2c-0.4,0.1-0.6,0.3-0.8,0.5s-0.3,0.5-0.3,0.9
				c0,0.2,0,0.4,0.1,0.6c0,0.1,0.1,0.3,0.3,0.4s0.3,0.2,0.6,0.3c0.2,0.1,0.6,0.1,1,0.1s0.7-0.1,1.1-0.2
				C48.9,19.3,49.2,19.1,49.5,18.9z M49.5,20.6c-0.2,0.1-0.4,0.3-0.7,0.5s-0.6,0.4-0.8,0.5c-0.4,0.2-0.7,0.3-1.1,0.4
				c-0.4,0.1-0.8,0.1-1.3,0.1c-1.1,0-2-0.3-2.7-1s-1.1-1.5-1.1-2.6c0-0.8,0.2-1.5,0.6-2c0.4-0.5,0.9-0.9,1.6-1.2
				c0.7-0.3,1.5-0.5,2.5-0.6s2-0.2,3.1-0.3v-0.1c0-0.6-0.3-1.1-0.8-1.3s-1.3-0.4-2.3-0.4h-3.7v-2.5l0,0c0,0,3.6,0,4.5,0
				c2.1,0,3.6,0.3,4.5,1c0.9,0.6,1.4,1.6,1.4,3v7.7h-3.6v-1.2C49.6,20.6,49.5,20.6,49.5,20.6z"/>
			<path class="st0" d="M79,18.9v-2.4c-0.5,0-1,0.1-1.6,0.2s-1,0.1-1.3,0.2c-0.4,0.1-0.6,0.3-0.8,0.5c-0.2,0.2-0.3,0.5-0.3,0.9
				c0,0.2,0,0.4,0.1,0.6c0,0.1,0.1,0.3,0.3,0.4c0.2,0.1,0.3,0.2,0.6,0.3c0.2,0.1,0.6,0.1,1,0.1s0.7-0.1,1.1-0.2
				C78.4,19.3,78.7,19.1,79,18.9z M79,20.6c-0.2,0.1-0.4,0.3-0.7,0.5c-0.3,0.2-0.6,0.4-0.8,0.5c-0.4,0.2-0.7,0.3-1.1,0.4
				s-0.8,0.1-1.3,0.1c-1.1,0-2-0.3-2.7-1s-1.1-1.5-1.1-2.6c0-0.8,0.2-1.5,0.6-2c0.4-0.5,0.9-0.9,1.6-1.2s1.5-0.5,2.5-0.6
				s2-0.2,3.1-0.3v-0.1c0-0.6-0.3-1.1-0.8-1.3S77,12.6,76,12.6h-3.7v-2.5l0,0c0,0,3.6,0,4.5,0c2.1,0,3.6,0.3,4.5,1
				c0.9,0.6,1.4,1.6,1.4,3v7.7H79V20.6z"/>
			<path class="st0" d="M122.9,18.9v-2.4c-0.5,0-1,0.1-1.6,0.2s-1,0.1-1.3,0.2c-0.4,0.1-0.6,0.3-0.8,0.5c-0.2,0.2-0.3,0.5-0.3,0.9
				c0,0.2,0,0.4,0.1,0.6c0,0.1,0.1,0.3,0.3,0.4c0.2,0.1,0.3,0.2,0.6,0.3c0.2,0.1,0.6,0.1,1,0.1s0.7-0.1,1.1-0.2
				C122.3,19.3,122.7,19.1,122.9,18.9z M122.9,20.6c-0.2,0.1-0.4,0.3-0.7,0.5c-0.3,0.2-0.6,0.4-0.8,0.5c-0.4,0.2-0.7,0.3-1.1,0.4
				s-0.8,0.1-1.3,0.1c-1.1,0-2-0.3-2.7-1s-1.1-1.5-1.1-2.6c0-0.8,0.2-1.5,0.6-2c0.4-0.5,0.9-0.9,1.6-1.2s1.5-0.5,2.5-0.6
				s2-0.2,3.1-0.3v-0.1c0-0.6-0.3-1.1-0.8-1.3s-1.3-0.4-2.3-0.4h-3.7v-2.5l0,0c0,0,3.6,0,4.5,0c2.1,0,3.6,0.3,4.5,1
				c0.9,0.6,1.4,1.6,1.4,3v7.7H123L122.9,20.6L122.9,20.6z"/>
		</g>
	</g>
</g>
<path class="st1" d="M0.3,15.6C0.8,14.7,7.2,2.3,7.7,1.2C8,0.5,8.4,0,9.1,0c0.5,0,0.8,0.2,1.1,0.4c2.1,2,14.3,13.9,15.5,15.1
	c0.7,0.7,0.5,1.3,0.2,1.9C24.8,19.5,19,30.9,19,30.9s1.1,0.2,1.7,0.2c1.7,0,3.1-0.5,3.1-0.5c0.1-0.1,7-13.7,7-13.7
	S16.5,2.9,16.1,2.6c-0.6-0.5-0.8-1.5-0.1-2.2c0.7-0.7,1.6-0.4,2,0s15.2,14.7,15.6,15.2c0.7,0.8,0.4,1.2-0.1,2.2
	C33,18.6,26.3,31.6,26,32.2c-0.2,0.4-0.4,0.6-0.7,0.8c-0.3,0.2-2.2,1-4.8,1c-2.5,0-4.2-0.9-4.5-1.1C15.9,32.7,1,18.2,0.4,17.6
	C0,17.2-0.2,16.5,0.3,15.6z"/>
</svg>
